<?xml version="1.0" encoding="UTF-8"?>
<svg width="960px" height="960px" viewBox="0 0 960 960" version="1.1" xmlns="http://www.w3.org/2000/svg" xmlns:xlink="http://www.w3.org/1999/xlink">
    <title>Logo Copy</title>
    <g id="Logo-Copy" stroke="none" stroke-width="1" fill="none" fill-rule="evenodd">
        <path d="M780,0 C879.411255,-1.82615513e-14 960,80.588745 960,180 L960,780 C960,879.411255 879.411255,960 780,960 L180,960 C80.588745,960 1.21743675e-14,879.411255 0,780 L0,180 C-1.21743675e-14,80.588745 80.588745,1.82615513e-14 180,0 L780,0 Z M374.874093,302.855019 L294.307648,302.855019 L294.307648,394.850345 L229,394.850345 L229,460.648327 L294.307648,460.648327 L294.307648,586.761126 C294.307648,670.227084 341.915093,708 413.936612,708 C439.57139,708 461.544057,702.516835 493.282353,685.458099 L470.088982,618.441636 C454.219834,626.971004 433.467871,633.063409 419.429779,633.063409 C392.574297,633.063409 374.874093,617.223155 374.874093,580.66872 L374.874093,460.648327 L474.361445,460.648327 L474.361445,394.850345 L374.874093,394.850345 L374.874093,302.855019 Z M678.437244,252 C606.708677,252 557.663503,295.958717 557.663503,367.391633 L557.663503,394.865831 L511.070588,394.865831 L511.070588,460.803907 L557.663503,460.803907 L557.663503,699.524164 L638.58804,699.524164 L638.58804,460.803907 L731.160806,460.803907 L731.160806,394.865831 L638.58804,394.865831 L638.58804,367.391633 C638.58804,338.696359 657.593045,323.432916 683.954826,323.432916 C692.537732,323.432916 703.572896,325.264529 714.60806,328.927755 L733,263.600217 C715.834189,255.663226 698.055314,252 678.437244,252 Z" id="Combined-Shape" fill="#FFFFFF"></path>
    </g>
</svg>