<?xml version="1.0" encoding="UTF-8"?>
<svg width="960px" height="960px" viewBox="0 0 960 960" version="1.1" xmlns="http://www.w3.org/2000/svg" xmlns:xlink="http://www.w3.org/1999/xlink">
    <title>Logo</title>
    <g id="Logo" stroke="none" stroke-width="1" fill="none" fill-rule="evenodd">
        <rect id="Rectangle" fill="#0091FF" x="0" y="0" width="960" height="960"></rect>
        <path d="M164.303778,544.994144 C172.108262,544.994144 178.79782,543.321755 188.460514,538.118766 L181.399314,517.67845 C176.567967,520.279945 170.250051,522.138155 165.976167,522.138155 C157.800041,522.138155 152.411231,517.306808 152.411231,506.157545 L152.411231,469.550799 L182.700062,469.550799 L182.700062,449.482125 L152.411231,449.482125 L152.411231,421.423147 L127.882852,421.423147 L127.882852,449.482125 L108,449.482125 L108,469.550799 L127.882852,469.550799 L127.882852,508.015756 C127.882852,533.473239 142.376894,544.994144 164.303778,544.994144 Z M239.747124,544.994144 C252.382955,544.994144 262.603113,541.277723 270.407597,534.959808 L270.407597,542.206829 L294.935975,542.206829 L294.935975,449.482125 L270.407597,449.482125 L270.407597,456.914967 C262.603113,450.411231 252.382955,446.69481 239.747124,446.69481 C216.14785,446.69481 194.220967,466.763483 194.220967,495.937388 C194.220967,525.111292 216.14785,544.994144 239.747124,544.994144 Z M244.021008,523.624724 C229.155324,523.624724 218.006061,513.032924 218.006061,495.937388 C218.006061,478.841851 229.155324,468.06423 244.021008,468.06423 C257.214302,468.06423 270.407597,478.841851 270.407597,495.937388 C270.407597,513.032924 257.214302,523.624724 244.021008,523.624724 Z M345.4793,573.796407 L345.4793,534.959808 C353.283784,541.277723 363.503942,544.994144 376.139773,544.994144 C399.739047,544.994144 421.66593,525.111292 421.66593,495.937388 C421.66593,466.763483 399.739047,446.69481 376.139773,446.69481 C363.503942,446.69481 353.283784,450.411231 345.4793,456.914967 L345.4793,449.482125 L320.950922,449.482125 L320.950922,573.796407 L345.4793,573.796407 Z M371.865889,523.624724 C358.672595,523.624724 345.4793,513.032924 345.4793,495.937388 C345.4793,478.841851 358.672595,468.06423 371.865889,468.06423 C386.731573,468.06423 397.880836,478.841851 397.880836,495.937388 C397.880836,513.032924 386.731573,523.624724 371.865889,523.624724 Z M469.607761,542.206829 L469.607761,469.550799 L497.666739,469.550799 L497.666739,449.482125 L469.607761,449.482125 L469.607761,441.120178 C469.607761,432.386589 475.368213,427.741063 483.358518,427.741063 C485.960013,427.741063 489.304792,428.298526 492.649571,429.413452 L498.224202,409.5306 C493.021213,407.114926 487.632403,406 481.686129,406 C459.945066,406 445.079382,419.379116 445.079382,441.120178 L445.079382,449.482125 L430.956983,449.482125 L430.956983,469.550799 L445.079382,469.550799 L445.079382,542.206829 L469.607761,542.206829 Z M551.926485,544.622502 C579.056359,544.622502 601.912348,525.111292 601.912348,495.937388 C601.912348,466.763483 579.056359,447.252273 551.926485,447.252273 C524.239149,447.252273 501.38316,466.763483 501.38316,495.937388 C501.38316,525.111292 524.239149,544.622502 551.926485,544.622502 Z M551.926485,523.624724 C538.54737,523.624724 525.168254,513.218745 525.168254,495.937388 C525.168254,478.65603 538.54737,468.250051 551.926485,468.250051 C564.748138,468.250051 578.127253,478.65603 578.127253,495.937388 C578.127253,513.218745 564.748138,523.624724 551.926485,523.624724 Z M645.022831,542.206829 L645.022831,512.28964 C645.022831,486.460514 655.42881,472.523935 678.098977,472.523935 L683.487788,472.523935 L684.788535,448.924662 C682.558683,448.181378 680.700472,448.181378 678.284799,448.181378 C663.233294,448.181378 652.455673,455.61422 645.022831,466.391841 L645.022831,449.482125 L620.494452,449.482125 L620.494452,542.206829 L645.022831,542.206829 Z M724.740061,542.206829 L724.740061,497.609777 C724.740061,478.098567 732.916187,469.179157 745.92366,469.179157 C756.143818,469.179157 764.134123,476.79782 764.134123,489.24783 L764.134123,542.206829 L788.662501,542.206829 L788.662501,497.609777 C788.662501,478.098567 797.21027,469.179157 810.217743,469.179157 C820.437901,469.179157 828.428206,476.79782 828.428206,489.24783 L828.428206,542.206829 L852.770763,542.206829 L852.770763,484.230662 C852.770763,461.560494 836.046869,446.69481 816.72148,446.69481 C801.855796,446.69481 790.520712,452.455262 782.902049,461.932136 C776.212491,452.08362 764.877407,446.69481 752.427397,446.69481 C740.349029,446.69481 731.243797,450.597052 724.740061,457.100788 L724.740061,449.482125 L700.211682,449.482125 L700.211682,542.206829 L724.740061,542.206829 Z" id="tapform" fill="#FFFFFF" fill-rule="nonzero"></path>
    </g>
</svg>